# xmcd CD database file
#
# Track frame offsets:
#	150
#	14603
#	28309
#	44796
#	61002
#	75683
#	90643
#	105413
#	120120
#	131158
#
# Disc length: 1989 seconds
#
# Revision: 0
# Processed by: cddbd v1.5.1PL0 Copyright (c) Steve Scherf et al.
# Submitted via: CDex 1.50
#
DISCID=7d07c30a
DTITLE=George  Royter - Time Drifts On By
DYEAR=2005
DGENRE=Country
TTITLE0=George Royter =Old Time Family Dance
TTITLE1=George Royter =You Gave Me Loving
TTITLE2=George Royter =Watching You Grow
TTITLE3=George Royter =Time Drifts By
TTITLE4=George Royter =The Saturday Dance
TTITLE5=George Royter =Bundaberg And Song
TTITLE6=George Royter =Can't Take My Love Away
TTITLE7=George Royter =You Kids Have Got It Easy
TTITLE8=George Royter =Lockup The Back Door
TTITLE9=George Royter =Lockup The Back Door
EXTD=YEAR: 2005
EXTT0=
EXTT1=
EXTT2=
EXTT3=
EXTT4=
EXTT5=
EXTT6=
EXTT7=
EXTT8=
EXTT9=
PLAYORDER=
